<svg width="24" height="25" viewBox="0 0 24 25" fill="none" xmlns="http://www.w3.org/2000/svg">
    <path
        d="M6.94048 5.49993C6.94011 6.31424 6.44608 7.04702 5.69134 7.35273C4.9366 7.65845 4.07187 7.47605 3.5049 6.89155C2.93793 6.30704 2.78195 5.43715 3.1105 4.69207C3.43906 3.94699 4.18654 3.4755 5.00048 3.49993C6.08155 3.53238 6.94097 4.41837 6.94048 5.49993ZM7.00048 8.97993H3.00048V21.4999H7.00048V8.97993ZM13.3205 8.97993H9.34048V21.4999H13.2805V14.9299C13.2805 11.2699 18.0505 10.9299 18.0505 14.9299V21.4999H22.0005V13.5699C22.0005 7.39993 14.9405 7.62993 13.2805 10.6599L13.3205 8.97993Z"
        fill="#607B96" />
</svg>